<svg id="Capa_1" enable-background="new 0 0 512.001 512.001" height="512" viewBox="0 0 512.001 512.001" width="512" xmlns="http://www.w3.org/2000/svg"><g><g><path d="m450.892 262.78-29.36 154.77-16.49 86.95h-179.08c-6.03-30.42-9.72-59.63-11.76-86.95-6.33-84.8 3.34-151.42 8.65-179.77 1.78-9.47-1.26-19.19-8.11-25.96l-44.21-43.68-162.58-160.64h311.44l29.6 40.62 77.59 106.51c22.69 31.15 31.49 70.29 24.31 108.15z" fill="#fd4755"/><path d="m426.582 154.63-77.59-106.51-29.6-40.62h-25.453l29.6 40.62 77.59 106.51c22.69 31.15 31.49 70.29 24.31 108.15l-29.36 154.77-16.49 86.95h25.453l16.49-86.95 29.36-154.77c7.18-37.86-1.62-77-24.31-108.15z" fill="#e41f2d"/><path d="m366.434 327.574-16.262 176.926h-65.24l18.3-199.1c-8.67-8.57-23.55-19.23-22.88-32.99-1.51-14.25 8.42-27.18 22.58-29.4 18.28-4.35 28.32 7.92 37.02 21.84l22.253 41.754c3.425 6.428 4.895 13.717 4.229 20.97z" fill="#e8edf2"/><path d="m362.204 306.604-22.253-41.754c-8.7-13.92-18.74-26.19-37.02-21.84-2.366.371-4.609 1.047-6.705 1.972 7.511 3.981 13.127 11.635 18.272 19.868l22.253 41.754c3.426 6.428 4.896 13.717 4.229 20.97l-16.261 176.926h25.453l16.262-176.926c.666-7.253-.804-14.542-4.23-20.97z" fill="#cde0e6"/><path d="m355.582 190.85c-16.31 10.11-29.99 1.45-42.91-9.24-2.92 14.52-8.81 30.01-25.5 32.27-14.74 2.37-28.68-7.46-31.38-22.15-5.27-17.51 5.84-28.07 16.2-40.21l-133.81-144.02h86.45l110.57 123c11.16 5.51 29 11.05 32.79 24.59 6.05 13.33.59 29.05-12.41 35.76z" fill="#e8edf2"/><g><path d="m271.833 211.938c4.666 2.038 9.947 2.809 15.338 1.942 16.69-2.26 22.58-17.75 25.5-32.27-1.9-1.222-6.374-3.328-10.649-5.288-4.142-1.899-8.967.691-9.642 5.197-1.754 11.717-4.661 25.245-20.547 30.419z" fill="#cde0e6"/><path d="m367.992 155.09c-3.79-13.54-21.63-19.08-32.79-24.59l-110.57-123h-25.453l110.57 123c11.16 5.51 29 11.05 32.79 24.59 6.05 13.33.59 29.05-12.41 35.76-.773.479-1.478.886-2.122 1.228 8.486 4.101 17.532 4.998 27.576-1.228 12.999-6.71 18.459-22.43 12.409-35.76z" fill="#cde0e6"/><path d="m312.672 181.61c.982.813 1.969 1.611 2.961 2.393-.82-.827-1.786-1.637-2.961-2.393z" fill="#e8edf2"/></g><path d="m371.06 249.665 11.449-33.043c1.452-4.19 6.064-6.367 10.221-4.824l20.592 7.64c5.323 1.975 6.891 8.75 2.978 12.863l-27.059 28.437c-3.665 3.851-9.574 4.494-13.981 1.521-4.093-2.76-5.816-7.929-4.2-12.594z" fill="#e8edf2"/><path d="m413.322 219.438-20.592-7.64c-3.962-1.47-8.332.443-9.99 4.253l9.129 3.387c5.323 1.975 6.891 8.75 2.978 12.863l-23.647 24.852c.782 2.025 2.162 3.826 4.06 5.107 4.407 2.973 10.317 2.33 13.981-1.521l27.059-28.437c3.914-4.114 2.345-10.888-2.978-12.864z" fill="#cde0e6"/></g><g><path d="m346.57 261.323c-6.221-10.066-19.419-31.439-45.093-25.675-17.784 2.942-30.246 19.071-28.639 36.991-.057 15.511 12.57 26.525 22.593 35.687l-17.968 195.488c-.379 4.125 2.658 7.776 6.782 8.155 4.128.372 7.776-2.658 8.155-6.782l18.3-199.1c.205-2.234-.601-4.443-2.196-6.021-1.591-1.572-3.303-3.143-5.116-4.806-7.466-6.847-15.929-14.606-15.545-22.486-1.497-10.076 5.835-21.084 16.825-22.469 12.633-3.006 19.887 4.105 28.788 18.302l22.13 41.523c2.745 5.15 3.914 10.945 3.379 16.757l-16.262 176.926c-.379 4.125 2.658 7.776 6.782 8.155.234.021.465.032.695.031 3.832 0 7.102-2.923 7.46-6.813l16.262-176.926c.802-8.735-.954-17.444-5.08-25.185z"/><path d="m288.27 221.3c17.361-2.395 25.136-15.985 28.83-26.862 10.451 7.022 25.441 13.17 42.186 2.938 16.209-8.537 23.06-28.098 15.764-44.873-4.321-14.214-19.457-20.996-30.546-25.966-1.66-.744-3.249-1.456-4.71-2.148l-109.585-121.902c-2.769-3.08-7.511-3.331-10.592-.564-3.08 2.77-3.333 7.512-.563 10.592l110.57 123c.637.709 1.403 1.289 2.257 1.711 2.042 1.009 4.201 1.977 6.487 3.001 9.473 4.244 20.209 9.056 22.401 16.886 4.716 9.351 1.112 22.447-9.14 27.363-11.403 7.071-20.81 2.417-34.178-8.643-2.032-1.682-4.798-2.172-7.286-1.291-2.486.881-4.327 3.004-4.847 5.591-3.392 16.865-9.299 24.981-19.154 26.315-10.394 1.869-21.462-5.877-23.192-16.878-3.455-11.479 2.018-18.532 11.987-30.012.911-1.048 1.827-2.103 2.737-3.17 2.471-2.896 2.381-7.184-.21-9.974l-133.81-144.018c-2.821-3.036-7.565-3.209-10.6-.39s-3.209 7.564-.39 10.599l129.236 139.095c-9.309 10.802-18.837 23.214-13.428 41.8 3.693 17.956 21.123 30.721 39.776 27.8z"/><path d="m221.681 416.991c-6.141-82.262 2.717-146.726 8.542-177.825 2.242-11.93-1.574-24.146-10.209-32.681l-206.791-204.32c-2.947-2.912-7.696-2.883-10.606.064-2.912 2.946-2.883 7.695.063 10.606l206.79 204.319c5.084 5.024 7.331 12.218 6.01 19.245-5.961 31.824-15.025 97.748-8.757 181.709 2.218 29.708 6.216 59.265 11.882 87.85.708 3.571 3.842 6.043 7.349 6.043.484 0 .974-.047 1.467-.145 4.063-.805 6.704-4.752 5.898-8.814-5.549-27.993-9.465-56.944-11.638-86.051z"/><path d="m425.581 223.376c-1.172-5.062-4.78-9.162-9.65-10.969l-20.592-7.642c-3.917-1.453-8.157-1.271-11.935.513s-6.613 4.939-7.982 8.889l-11.449 33.043c-2.725 7.865.191 16.61 7.093 21.268 3.148 2.124 6.732 3.16 10.292 3.16 4.885 0 9.724-1.954 13.317-5.729l27.058-28.437c3.582-3.764 5.02-9.033 3.848-14.096zm-14.715 3.756-27.058 28.437c-1.146 1.203-2.977 1.402-4.353.475-1.273-.859-1.811-2.472-1.308-3.923l11.448-33.042c.015-.044.056-.162.211-.235.156-.071.272-.029.315-.014l20.592 7.642c.082.03.205.075.254.289.05.212-.041.308-.101.371z"/><path d="m472.841 101.416c2.579-3.241 2.042-7.96-1.199-10.539-3.241-2.578-7.96-2.042-10.539 1.199l-36.968 46.459-69.083-94.832-29.6-40.62c-2.439-3.347-7.13-4.083-10.479-1.645-3.348 2.439-4.084 7.131-1.645 10.479l29.6 40.619 71.518 98.175-15.245 19.159c-2.579 3.241-2.042 7.96 1.199 10.539 1.38 1.098 3.028 1.631 4.665 1.631 2.207 0 4.393-.969 5.874-2.83l12.593-15.826c19.141 28.645 26.427 64.054 19.99 97.999l-45.85 241.72c-.772 4.069 1.901 7.994 5.971 8.767.472.089.942.132 1.406.132 3.532 0 6.678-2.506 7.36-6.103l45.85-241.72c7.465-39.366-1.641-80.5-24.972-113.054z"/><path d="m496.315 165.788c3.522-2.18 4.611-6.802 2.432-10.324-2.179-3.521-6.8-4.612-10.324-2.432l-21.221 13.13c-3.522 2.18-4.611 6.802-2.432 10.324 1.419 2.293 3.873 3.555 6.385 3.555 1.346 0 2.709-.362 3.939-1.123z"/><path d="m504.049 211.028h-23.362c-4.142 0-7.5 3.357-7.5 7.5s3.358 7.5 7.5 7.5h23.362c4.142 0 7.5-3.357 7.5-7.5s-3.357-7.5-7.5-7.5z"/></g></g></svg>