<svg height="496pt" viewBox="-56 0 496 496" width="496pt" xmlns="http://www.w3.org/2000/svg"><path d="m8 8v448c0 17.679688 14.320312 32 32 32 8.800781 0 16.800781-3.601562 22.640625-9.359375 5.757813-5.839844 9.359375-13.839844 9.359375-22.640625v-288h160l32-48h48v-112zm0 0" fill="#e6e9ed"/><path d="m376 200v256c0 17.679688-14.320312 32-32 32h-304c8.800781 0 16.800781-3.601562 22.640625-9.359375 5.757813-5.839844 9.359375-13.839844 9.359375-22.640625v-256zm0 0" fill="#fcd770"/><path d="m376 120v80h-304v-32h160l32-48zm0 0" fill="#ffc729"/><path d="m224 232c61.839844 0 112 50.160156 112 112 0 30.480469-12.238281 58.078125-32 78.320312v-40.480468c0-7.917969-5.839844-14.640625-13.761719-15.839844l-42.238281-6v-25.679688l-.558594-.558593c5.277344-5.761719 8.558594-13.363281 8.558594-21.761719v-16c0-8.800781-3.601562-16.800781-9.359375-22.640625-5.839844-5.757813-13.839844-9.359375-22.640625-9.359375-17.679688 0-32 14.320312-32 32v16c0 8.398438 3.28125 16 8.558594 21.761719l-.558594.558593v25.679688l-42.238281 6c-7.921875 1.199219-13.761719 7.921875-13.761719 15.839844v40.480468c-19.761719-20.242187-32-47.839843-32-78.320312 0-61.839844 50.160156-112 112-112zm0 0" fill="#e6e9ed"/><path d="m248 334.320312v25.679688l42.238281 6c7.921875 1.199219 13.761719 7.921875 13.761719 15.839844v40.480468c-20.320312 20.800782-48.640625 33.679688-80 33.679688s-59.679688-12.878906-80-33.679688v-40.480468c0-7.917969 5.839844-14.640625 13.761719-15.839844l42.238281-6v-25.679688l.558594-.558593c5.839844 6.316406 14.160156 10.238281 23.441406 10.238281s17.601562-3.921875 23.441406-10.238281zm0 0" fill="#5cd6b3"/><path d="m256 296v16c0 8.398438-3.28125 16-8.558594 21.761719-5.839844 6.316406-14.160156 10.238281-23.441406 10.238281s-17.601562-3.921875-23.441406-10.238281c-5.277344-5.761719-8.558594-13.363281-8.558594-21.761719v-16c0-17.679688 14.320312-32 32-32 8.800781 0 16.800781 3.601562 22.640625 9.359375 5.757813 5.839844 9.359375 13.839844 9.359375 22.640625zm0 0" fill="#f0d0b4"/><path d="m224 224c-66.167969 0-120 53.832031-120 120s53.832031 120 120 120 120-53.832031 120-120-53.832031-120-120-120zm-72 194.871094v-37c0-3.949219 2.953125-7.359375 6.871094-7.910156l49.128906-7.023438v-18.328125c4.910156 2.160156 10.304688 3.390625 16 3.390625s11.089844-1.230469 16-3.390625v18.328125l49.136719 7.023438c3.910156.550781 6.863281 3.960937 6.863281 7.910156v37c-18.703125 17.992187-44.054688 29.128906-72 29.128906s-53.296875-11.136719-72-29.128906zm96-106.871094c0 13.230469-10.769531 24-24 24s-24-10.769531-24-24v-16c0-13.230469 10.769531-24 24-24s24 10.769531 24 24zm64 87.167969v-17.296875c0-11.863282-8.855469-22.078125-20.609375-23.757813l-35.390625-5.050781v-17.308594c4.960938-6.664062 8-14.832031 8-23.753906v-16c0-22.054688-17.945312-40-40-40s-40 17.945312-40 40v16c0 8.929688 3.039062 17.089844 8 23.753906v17.308594l-35.390625 5.058594c-11.753906 1.679687-20.609375 11.886718-20.609375 23.75v17.296875c-10.078125-16.015625-16-34.894531-16-55.167969 0-57.34375 46.65625-104 104-104s104 46.65625 104 104c0 20.28125-5.921875 39.160156-16 55.167969zm0 0"/><path d="m272 144h80v16h-80zm0 0"/><path d="m320 112v-112h-320v456c0 22.054688 17.945312 40 40 40h304c22.054688 0 40-17.945312 40-40v-344zm48 16v64h-288v-16h156.28125l32-48zm-328 352c-13.230469 0-24-10.769531-24-24v-440h288v96h-44.28125l-32 48h-163.71875v56h-32v16h32v16h-32v16h32v16h-32v16h32v16h-32v16h32v16h-32v16h32v16h-32v16h32v16h-32v16h32v32c0 13.230469-10.769531 24-24 24zm304 0h-272.015625c5.023437-6.6875 8.015625-15 8.015625-24v-248h288v248c0 13.230469-10.769531 24-24 24zm0 0"/><path d="m64 32h224v16h-224zm0 0"/><path d="m32 32h16v16h-16zm0 0"/><path d="m32 64h224v16h-224zm0 0"/><path d="m272 64h16v16h-16zm0 0"/><path d="m32 96h184v16h-184zm0 0"/><path d="m32 128h184v16h-184zm0 0"/></svg>