<svg id="filled_outline" height="512" viewBox="0 0 512 512" width="512" xmlns="http://www.w3.org/2000/svg" data-name="filled outline"><path d="m40 208h432v144h-432z" fill="#d68029"/><path d="m168 64h32v64h-32z" fill="#4895aa"/><path d="m312 64h32v64h-32z" fill="#4895aa"/><path d="m40 120h432v96h-432z" fill="#feac4f"/><path d="m40 120h432a81.941 81.941 0 0 1 -57.941 24h-326.268a57.436 57.436 0 0 1 -40.614-16.823z" fill="#ffd199"/><path d="m40 128v88h16v-57.76a34.378 34.378 0 0 0 -10.069-24.309z" fill="#ffd199"/><path d="m183.558 24h144.884a15.558 15.558 0 0 1 15.558 15.558v32.442a0 0 0 0 1 0 0h-176a0 0 0 0 1 0 0v-32.442a15.558 15.558 0 0 1 15.558-15.558z" fill="#0a4566"/><path d="m352 344 38.767-38.767a31.523 31.523 0 0 0 9.233-22.29v-9.972a40.971 40.971 0 0 1 12-28.971 40.971 40.971 0 0 1 28.971-12h3.715a27.315 27.315 0 0 1 19.314 8l-32 32 16 16 32-32a27.315 27.315 0 0 1 8 19.314v3.715a40.971 40.971 0 0 1 -12 28.971 40.971 40.971 0 0 1 -28.971 12h-9.972a31.523 31.523 0 0 0 -22.29 9.233l-14.767 14.767z" fill="#96d6e4"/><path d="m432 272 32-32a27.307 27.307 0 0 0 -16.187-7.813l-15.829 15.842a16.945 16.945 0 0 0 .016 23.971z" fill="#4895aa"/><path d="m480 256-.187.187a27.312 27.312 0 0 1 .187 3.127v3.715a40.971 40.971 0 0 1 -40.97 40.971h-9.973a31.523 31.523 0 0 0 -22.29 9.233 50.418 50.418 0 0 1 -35.651 14.767h-3.116l-16 16h48l14.767-14.767a31.523 31.523 0 0 1 22.29-9.233h9.973a40.971 40.971 0 0 0 40.97-40.971v-3.715a27.315 27.315 0 0 0 -8-19.314z" fill="#4895aa"/><path d="m120 296h-32v-120l-8-16 8-40h32l8 40-8 16z" fill="#96d6e4"/><path d="m120 120h-16l8 40-8 16v120h16v-120l8-16z" fill="#4895aa"/><path d="m144 344h-80v-7.056a37.881 37.881 0 0 1 4-16.944 37.881 37.881 0 0 0 4-16.944v-23.056h64v23.056a37.881 37.881 0 0 0 4 16.944 37.881 37.881 0 0 1 4 16.944z" fill="#af1e4b"/><path d="m83.952 328.1a37.176 37.176 0 0 0 4.048-16.512v-8.435a15.153 15.153 0 0 1 15.153-15.153h32.847v-8h-64v23.077a39.494 39.494 0 0 1 -4.173 17.273 37.9 37.9 0 0 0 -3.827 16.594v7.056h16.027a37.882 37.882 0 0 1 3.925-15.9z" fill="#dd1c4b"/><path d="m320.447 320.445-47.56-6.551 16.656-105.894 47.331 8z" fill="#2a6377"/><path d="m320.447 320.445-47.56-6.551 7.5-47.658a43.957 43.957 0 0 0 48.21-28.031l8.277-22.205z" fill="#4895aa"/><path d="m260.396 312.32h64v64h-64z" fill="#0a4566" transform="matrix(.988 .155 -.155 .988 57.05 -41.25)"/><path d="m276.294 374.181-20.481-3.222 9.944-63.222 63.223 9.944-11.711.615a40.09 40.09 0 0 0 -37.5 33.807z" fill="#045f9c"/><path d="m176 168h64v192h-64z" fill="#efd66a"/><path d="m176 168h64a0 0 0 0 1 0 0v112a64 64 0 0 1 -64 64 0 0 0 0 1 0 0v-176a0 0 0 0 1 0 0z" fill="#f6e597"/><path d="m383.41 229.062-130.571-20.537 8.138-47.311 82.474 12.972a48 48 0 0 1 39.959 54.876z" fill="#96d6e4"/><path d="m275.086 176.49 2-12.741-12.667-1.993-7.458 47.417 126.449 19.889a47.9 47.9 0 0 0 -.087-15.44l-91.7-14.424a19.863 19.863 0 0 1 -16.537-22.708z" fill="#4895aa"/><path d="m228.888 150.979h32v64h-32z" fill="#045f9c" transform="matrix(.988 .155 -.155 .988 31.405 -35.827)"/><path d="m255.722 217.076-31.612-4.976 3.6-22.878a32.851 32.851 0 0 1 36.714-27.47z" fill="#0a4566"/><path d="m24 344h464v144h-464z" fill="#feac4f"/><path d="m472 344v100.115a27.884 27.884 0 0 1 -27.885 27.885h-384.364a47.684 47.684 0 0 0 -33.717 13.966l-2.034 2.034h464v-144z" fill="#d68029"/><path d="m27.907 476.093-3.907 3.907v-136h16v102.9a41.289 41.289 0 0 1 -12.093 29.193z" fill="#ffd199"/><path d="m120 376h64v48h-64z" fill="#d68029"/><path d="m328 376h64v48h-64z" fill="#d68029"/><path d="m24 344h464v32h-464z" fill="#2993ce"/><path d="m472 344h16v32h-16z" fill="#045f9c"/><path d="m474.343 250.343-26.343 26.344-4.687-4.687 26.344-26.343a8 8 0 0 0 0-11.314 35.085 35.085 0 0 0 -24.97-10.343h27.313a8 8 0 0 0 8-8v-96a8 8 0 0 0 -8-8h-64.3v16h56.3v80h-73.687a56.083 56.083 0 0 0 -45.619-41.716l-71.126-11.184a8 8 0 0 0 -6.659-9.145l-31.609-4.976a8 8 0 0 0 -9.146 6.659l-1.947 12.362h-48.207a8 8 0 0 0 -8 8v40h-40v-30.111l7.155-14.311a8 8 0 0 0 .69-5.147l-6.087-30.431h262.242v-16h-40v-72.442a23.585 23.585 0 0 0 -23.558-23.558h-144.884a23.585 23.585 0 0 0 -23.558 23.558v72.442h-120a8 8 0 0 0 -8 8v199.746h16v-95.746h32v48h-8a8 8 0 0 0 -8 8v23.056a30.034 30.034 0 0 1 -3.156 13.366 46.137 46.137 0 0 0 -4.816 19.578h-32.028a8 8 0 0 0 -8 8v144a8 8 0 0 0 8 8h464a8 8 0 0 0 8-8v-144a8 8 0 0 0 -8-8h-8v-20.765c.562-.513 1.115-1.037 1.657-1.578a48.651 48.651 0 0 0 14.343-34.628v-3.716a35.082 35.082 0 0 0 -10.343-24.97 8 8 0 0 0 -11.314 0zm-92.176-13.379a7.994 7.994 0 0 0 9.146-6.659 56.377 56.377 0 0 0 .62-6.305h49.038a48.97 48.97 0 0 0 -48.971 48.971v9.972a23.372 23.372 0 0 1 -6.889 16.633l-36.424 36.424h-14.487l2.686-17.076a8 8 0 0 0 -6.66-9.146l12.43-79.029zm-127.688-11.985a7.994 7.994 0 0 0 9.146-6.66l15.805 2.486-12.43 79.029a8 8 0 0 0 -9.146 6.66l-4.641 29.506h-5.213v-112.04zm28.327 77.341 12.43-79.029 31.611 4.972-12.43 79.029zm-10.389 14.563 47.417 7.457-1.834 11.66h-48.59zm103.54-97.092-109.847-17.278 4.972-31.611 71.126 11.187a40.073 40.073 0 0 1 33.749 37.702zm-135.243-61.764 15.806 2.486-7.458 47.417-15.806-2.486zm-19.023 17.973-5.483 34.861a8 8 0 0 0 6.659 9.146l9.133 1.437v114.556h-48v-16h16v-16h-16v-16h16v-16h-16v-16h16v-16h-16v-64zm-53.691 48v112h-16.028a46.137 46.137 0 0 0 -4.816-19.578 30.034 30.034 0 0 1 -3.156-13.366v-23.056a8 8 0 0 0 -8-8h-8v-48zm136-144v32h-96v-32zm16 32v-32h16v32zm-144-72.442a7.567 7.567 0 0 1 7.558-7.558h144.884a7.567 7.567 0 0 1 7.558 7.558v24.442h-160zm0 40.442h16v32h-16zm-128 128v-80h30.242l-6.087 30.431a8 8 0 0 0 .69 5.147l7.155 14.311v30.111zm47.155-35.578-6.772-13.545 6.175-30.877h18.884l6.175 30.877-6.772 13.545a7.994 7.994 0 0 0 -.845 3.578v96h-16v-96a7.994 7.994 0 0 0 -.845-3.578zm-20 151.156a46.133 46.133 0 0 0 4.845-20.522v-15.056h48v15.056a46.133 46.133 0 0 0 4.844 20.522 30.035 30.035 0 0 1 3.128 12.422h-63.944a30.035 30.035 0 0 1 3.128-12.422zm404.845 156.422h-448v-96h80v40a8 8 0 0 0 8 8h64a8 8 0 0 0 8-8v-24h-16v16h-48v-32h256v32h-48v-16h-16v24a8 8 0 0 0 8 8h64a8 8 0 0 0 8-8v-40h63.982v-16h-431.982v-16h448zm-16-144h-44.687l1.111-1.111a23.372 23.372 0 0 1 16.633-6.889h9.972a48.971 48.971 0 0 0 16.971-3.017zm16-56.971a32.971 32.971 0 0 1 -32.971 32.971h-9.972a39.26 39.26 0 0 0 -27.946 11.576l-12.424 12.424h-25.374l25.111-25.111a39.26 39.26 0 0 0 11.576-27.946v-9.972a32.971 32.971 0 0 1 32.971-32.971h3.716a19.308 19.308 0 0 1 6.781 1.219l-25.125 25.124a8 8 0 0 0 0 11.314l16 16a8 8 0 0 0 11.314 0l25.124-25.125a19.308 19.308 0 0 1 1.219 6.781z"/></svg>