<svg id="Layer_1" enable-background="new 0 0 511.993 511.993" height="512" viewBox="0 0 511.993 511.993" width="512" xmlns="http://www.w3.org/2000/svg"><g><path d="m138.385 485.993h-126.886c-2.209 0-4-1.791-4-4v-146.996c0-2.209 1.791-4 4-4h126.886c2.209 0 4 1.791 4 4v146.996c0 2.209-1.791 4-4 4z" fill="#fe646f"/><path d="m138.385 330.997h-30c2.209 0 4 1.791 4 4v146.995c0 2.209-1.791 4-4 4h30c2.209 0 4-1.791 4-4v-146.995c0-2.209-1.791-4-4-4z" fill="#fd4755"/><path d="m302.484 485.993h-126.886c-2.209 0-4-1.791-4-4v-238.903c0-2.209 1.791-4 4-4h126.886c2.209 0 4 1.791 4 4v238.903c0 2.209-1.791 4-4 4z" fill="#ffe177"/><path d="m302.484 239.09h-30c2.209 0 4 1.791 4 4v238.903c0 2.209-1.791 4-4 4h30c2.209 0 4-1.791 4-4v-238.903c0-2.209-1.791-4-4-4z" fill="#ffd15b"/><path d="m493.062 158.755h-18.031c-1.16 0-2.1.94-2.1 2.1v321.138c0 2.211-1.792 4.004-4.004 4.004h-126.882c-2.211 0-4.004-1.792-4.004-4.004v-321.138c0-1.16-.94-2.1-2.1-2.1h-18.021c-9.561 0-14.886-11.05-8.929-18.528l87.57-109.928c4.57-5.737 13.287-5.737 17.857 0l87.57 109.928c5.96 7.478.635 18.528-8.926 18.528z" fill="#6ed5a1"/><g fill="#46cc8d"><path d="m501.991 140.227-87.571-109.928c-4.57-5.737-13.287-5.737-17.857 0l-6.071 7.621 92.39 115.978c1.561 1.96.166 4.856-2.34 4.856h12.52c9.561.001 14.886-11.049 8.929-18.527z"/><path d="m442.931 160.855v321.138c0 2.211-1.792 4.004-4.004 4.004h30c2.211 0 4.004-1.792 4.004-4.004v-321.138c0-1.16.94-2.1 2.1-2.1h-30c-1.16 0-2.1.94-2.1 2.1z"/></g><g><path d="m138.385 323.498h-68.562c-4.142 0-7.5 3.358-7.5 7.5s3.358 7.5 7.5 7.5h65.062v139.995h-119.885v-139.995h19.94c9.914-.293 9.905-14.706 0-15h-23.44c-6.341 0-11.5 5.159-11.5 11.5v146.995c0 6.341 5.159 11.5 11.5 11.5h126.885c6.341 0 11.5-5.159 11.5-11.5v-146.995c0-6.342-5.159-11.5-11.5-11.5z"/><path d="m302.484 231.59h-126.885c-6.341 0-11.5 5.159-11.5 11.5v238.903c0 6.341 5.159 11.5 11.5 11.5h126.885c6.341 0 11.5-5.159 11.5-11.5v-238.903c0-6.341-5.159-11.5-11.5-11.5zm-3.5 246.903h-119.885v-231.903h119.885z"/><path d="m507.855 135.554s-87.57-109.928-87.57-109.928c-3.61-4.531-9.002-7.129-14.795-7.129s-11.185 2.599-14.795 7.13l-87.57 109.927c-9.903 12.077-.853 30.926 14.795 30.701h12.62v315.738c0 6.343 5.161 11.503 11.504 11.503h126.882c6.343 0 11.503-5.161 11.503-11.503v-258.634c0-4.142-3.358-7.5-7.5-7.5s-7.5 3.358-7.5 7.5v255.138h-119.89v-317.642c0-5.293-4.306-9.6-9.599-9.6h-18.021c-3.506-.081-5.023-3.836-3.063-6.355 0 0 87.57-109.928 87.57-109.928 1.776-2.078 4.426-1.941 6.125-.001 0 0 87.57 109.928 87.57 109.928 2.072 2.695.246 6.294-3.062 6.355h-18.031c-5.293 0-9.6 4.306-9.6 9.6v27.221c.276 9.877 14.698 9.938 15 0v-21.821s12.63 0 12.63 0c15.641.218 24.71-18.605 14.797-30.7z"/></g></g></svg>