<?xml version="1.0" encoding="UTF-8" standalone="no"?>
<!-- Created with Inkscape (http://www.inkscape.org/) -->

<svg
   version="1.1"
   id="svg8886"
   xml:space="preserve"
   width="682.66669"
   height="682.66669"
   viewBox="0 0 682.66669 682.66669"
   xmlns="http://www.w3.org/2000/svg"
   xmlns:svg="http://www.w3.org/2000/svg"><defs
     id="defs8890"><clipPath
       clipPathUnits="userSpaceOnUse"
       id="clipPath8900"><path
         d="M 0,512 H 512 V 0 H 0 Z"
         id="path8898" /></clipPath></defs><g
     id="g8892"
     transform="matrix(1.3333333,0,0,-1.3333333,0,682.66667)"><g
       id="g8894"><g
         id="g8896"
         clip-path="url(#clipPath8900)"><g
           id="g8902"
           transform="translate(371.9736,367.6055)"><path
             d="m 0,0 h -241.548 v 24.758 c 0,12.039 7.127,22.936 18.156,27.763 l 125.553,54.94 H 0 Z"
             style="fill:#0dd290;fill-opacity:1;fill-rule:nonzero;stroke:none"
             id="path8904" /></g><g
           id="g8906"
           transform="translate(274.1348,475.0664)"><path
             d="M 0,0 -60.964,-26.677 H 44.003 c 11.133,0 20.158,-9.025 20.158,-20.159 v -60.628 H 97.84 V -0.003 Z"
             style="fill:#00c284;fill-opacity:1;fill-rule:nonzero;stroke:none"
             id="path8908" /></g><g
           id="g8910"
           transform="translate(371.9736,443.6045)"><path
             d="m 0,0 v 31.462 h -97.839 l -125.553,-54.94 c -11.029,-4.826 -18.156,-15.724 -18.156,-27.763 V -75.999 H 0 v 40.603"
             style="fill:none;stroke:#000000;stroke-width:15;stroke-linecap:round;stroke-linejoin:round;stroke-miterlimit:10;stroke-dasharray:none;stroke-opacity:1"
             id="path8912" /></g><g
           id="g8914"
           transform="translate(331.377,7.5)"><path
             d="m 0,0 h -160.354 c -5.173,0 -9.51,3.908 -10.047,9.054 l -35.124,336.642 H 45.171 L 10.047,9.054 C 9.51,3.908 5.173,0 0,0"
             style="fill:#eaf6ff;fill-opacity:1;fill-rule:nonzero;stroke:none"
             id="path8916" /></g><g
           id="g8918"
           transform="translate(125.8516,353.1963)"><path
             d="M 0,0 4.812,-46.121 H 185.7 c 14.589,0 25.968,-12.629 24.454,-27.138 l -27.479,-263.387 c -0.535,-5.141 -4.879,-9.05 -10.052,-9.05 h 32.901 c 5.173,0 9.506,3.909 10.052,9.05 L 250.699,0.002 Z"
             style="fill:#d8ecfe;fill-opacity:1;fill-rule:nonzero;stroke:none"
             id="path8920" /></g><g
           id="g8922"
           transform="translate(362.5195,218.7402)"><path
             d="m 0,0 -21.1,-202.19 c -0.53,-5.14 -4.87,-9.05 -10.04,-9.05 H -191.5 c -5.17,0 -9.51,3.91 -10.039,9.05 l -18.08,173.219 c 12.949,-5.83 27.309,-9.08 42.43,-9.08 25.24,0 48.37,9.041 66.339,24.051 17.96,15.01 41.09,24.05 66.33,24.05 C -28.58,10.05 -13.479,6.449 0,0"
             style="fill:#d78878;fill-opacity:1;fill-rule:nonzero;stroke:none"
             id="path8924" /></g><g
           id="g8926"
           transform="translate(362.5195,218.7402)"><path
             d="m 0,0 -21.09,-202.19 c -0.029,-0.32 -0.08,-0.64 -0.149,-0.951 -0.031,-0.149 -0.071,-0.309 -0.101,-0.459 -0.08,-0.31 -0.17,-0.61 -0.269,-0.9 -1.401,-3.96 -5.17,-6.74 -9.531,-6.74 h -32.899 c 5.17,0 9.51,3.91 10.05,9.05 L -31.93,9.29 C -20.619,7.92 -9.869,4.72 0,0"
             style="fill:#ca6f59;fill-opacity:1;fill-rule:nonzero;stroke:none"
             id="path8928" /></g><g
           id="g8930"
           transform="translate(359.4502,189.3301)"><path
             d="m 0,0 -18.03,-172.78 c -0.531,-5.14 -4.87,-9.05 -10.04,-9.05 h -160.361 c -5.17,0 -9.509,3.91 -10.039,9.05 l -21.051,201.76 c 13.71,6.709 29.111,10.48 45.401,10.48 25.24,0 48.37,-9.04 66.34,-24.05 17.96,-15.01 41.09,-24.051 66.33,-24.051 14.74,0 28.76,3.08 41.45,8.641"
             style="fill:#bc5d4c;fill-opacity:1;fill-rule:nonzero;stroke:none"
             id="path8932" /></g><g
           id="g8934"
           transform="translate(359.4502,189.3301)"><path
             d="m 0,0 -18.021,-172.78 c -0.029,-0.32 -0.08,-0.64 -0.149,-0.95 -0.03,-0.15 -0.07,-0.31 -0.101,-0.459 -0.08,-0.311 -0.169,-0.611 -0.269,-0.901 -1.4,-3.96 -5.17,-6.74 -9.53,-6.74 h -32.9 c 5.17,0 9.51,3.91 10.05,9.05 L -33.771,-8.35 C -21.83,-7.48 -10.47,-4.59 0,0"
             style="fill:#a54f3e;fill-opacity:1;fill-rule:nonzero;stroke:none"
             id="path8936" /></g><g
           id="g8938"
           transform="translate(139.9297,218.3105)"><path
             d="m 0,0 c 13.71,6.709 29.11,10.479 45.4,10.479 25.241,0 48.371,-9.04 66.34,-24.049 17.96,-15.01 41.09,-24.051 66.33,-24.051 14.741,0 28.76,3.08 41.451,8.641"
             style="fill:none;stroke:#000000;stroke-width:15;stroke-linecap:round;stroke-linejoin:round;stroke-miterlimit:10;stroke-dasharray:none;stroke-opacity:1"
             id="path8940" /></g><g
           id="g8942"
           transform="translate(251.6699,204.7402)"><path
             d="m 0,0 c 17.96,15.01 41.09,24.05 66.33,24.05 15.94,0 31.04,-3.601 44.52,-10.05"
             style="fill:none;stroke:#000000;stroke-width:15;stroke-linecap:round;stroke-linejoin:round;stroke-miterlimit:10;stroke-dasharray:none;stroke-opacity:1"
             id="path8944" /></g><g
           id="g8946"
           transform="translate(158.7012,38.3594)"><path
             d="m 0,0 2.274,-21.806 c 0.538,-5.145 4.874,-9.053 10.048,-9.053 h 160.354 c 5.173,0 9.51,3.908 10.047,9.053 L 184.998,0 Z"
             style="fill:#c3e0ff;fill-opacity:1;fill-rule:nonzero;stroke:none"
             id="path8948" /></g><g
           id="g8950"
           transform="translate(343.7002,38.3604)"><path
             d="m 0,0 -2.272,-21.81 c -0.546,-5.141 -4.879,-9.05 -10.052,-9.05 h -32.902 c 5.173,0 9.517,3.909 10.052,9.05 L -32.901,0 Z"
             style="fill:#8bc9fe;fill-opacity:1;fill-rule:nonzero;stroke:none"
             id="path8952" /></g><g
           id="g8954"
           transform="translate(158.6992,38.3604)"><path
             d="M 0,0 H 185.001"
             style="fill:none;stroke:#000000;stroke-width:15;stroke-linecap:round;stroke-linejoin:round;stroke-miterlimit:10;stroke-dasharray:none;stroke-opacity:1"
             id="path8956" /></g><g
           id="g8958"
           transform="translate(153.1592,91.4727)"><path
             d="m 0,0 7.817,-74.92 c 0.537,-5.144 4.873,-9.053 10.047,-9.053 h 160.354 c 5.173,0 9.51,3.909 10.047,9.053 L 223.39,261.723 H -27.308 L -3.672,35.193"
             style="fill:none;stroke:#000000;stroke-width:15;stroke-linecap:round;stroke-linejoin:round;stroke-miterlimit:10;stroke-dasharray:none;stroke-opacity:1"
             id="path8960" /></g><g
           id="g8962"
           transform="translate(372.6064,331.5127)"><path
             d="m 0,0 h -242.813 c -5.58,0 -10.102,4.523 -10.102,10.103 v 14.271 c 0,11.157 9.045,20.203 20.203,20.203 h 222.61 c 11.159,0 20.205,-9.046 20.205,-20.203 V 10.103 C 10.103,4.523 5.579,0 0,0"
             style="fill:#00f3a6;fill-opacity:1;fill-rule:nonzero;stroke:none"
             id="path8964" /></g><g
           id="g8966"
           transform="translate(382.7129,355.8848)"><path
             d="m 0,0 v -14.273 c 0,-5.577 -4.525,-10.102 -10.102,-10.102 h -35.153 c 5.586,0 10.102,4.525 10.102,10.102 V 0 c 0,11.162 -9.041,20.203 -20.203,20.203 h 35.153 C -9.051,20.203 0,11.162 0,0"
             style="fill:#07e29c;fill-opacity:1;fill-rule:nonzero;stroke:none"
             id="path8968" /></g><g
           id="g8970"
           transform="translate(205.9014,331.5137)"><path
             d="m 0,0 h 166.706 c 5.578,0 10.102,4.522 10.102,10.102 v 14.271 c 0,11.158 -9.046,20.203 -20.204,20.203 H -66.007 c -11.158,0 -20.203,-9.045 -20.203,-20.203 V 10.102 C -86.21,4.522 -81.688,0 -76.108,0 h 40.713"
             style="fill:none;stroke:#000000;stroke-width:15;stroke-linecap:round;stroke-linejoin:round;stroke-miterlimit:10;stroke-dasharray:none;stroke-opacity:1"
             id="path8972" /></g><g
           id="g8974"
           transform="translate(368.8164,472.4473)"><path
             d="m 0,0 h -94.542 c -5.579,0 -10.102,4.522 -10.102,10.102 v 1.748 c 0,11.158 9.046,20.203 20.204,20.203 H 0 c 5.579,0 10.102,-4.523 10.102,-10.102 V 10.102 C 10.102,4.522 5.579,0 0,0"
             style="fill:#00f3a6;fill-opacity:1;fill-rule:nonzero;stroke:none"
             id="path8976" /></g><g
           id="g8978"
           transform="translate(378.915,494.3984)"><path
             d="m 0,0 v -11.85 c 0,-5.576 -4.516,-10.101 -10.103,-10.101 h -30.749 c 5.587,0 10.102,4.525 10.102,10.101 V 0 c 0,5.576 -4.515,10.102 -10.102,10.102 h 30.749 C -4.516,10.102 0,5.576 0,0"
             style="fill:#07e29c;fill-opacity:1;fill-rule:nonzero;stroke:none"
             id="path8980" /></g><g
           id="g8982"
           transform="translate(368.8164,472.4473)"><path
             d="m 0,0 h -94.542 c -5.579,0 -10.102,4.522 -10.102,10.102 v 1.748 c 0,11.158 9.046,20.203 20.204,20.203 H 0 c 5.579,0 10.102,-4.523 10.102,-10.102 V 10.102 C 10.102,4.522 5.579,0 0,0 Z"
             style="fill:none;stroke:#000000;stroke-width:15;stroke-linecap:round;stroke-linejoin:round;stroke-miterlimit:10;stroke-dasharray:none;stroke-opacity:1"
             id="path8984" /></g><g
           id="g8986"
           transform="translate(368.8164,472.4473)"><path
             d="M 0,0 H 23.492"
             style="fill:none;stroke:#000000;stroke-width:15;stroke-linecap:round;stroke-linejoin:round;stroke-miterlimit:10;stroke-dasharray:none;stroke-opacity:1"
             id="path8988" /></g><g
           id="g8990"
           transform="translate(308.9746,469.3965)"><path
             d="M 0,0 -44.802,-93.307"
             style="fill:none;stroke:#000000;stroke-width:15;stroke-linecap:round;stroke-linejoin:round;stroke-miterlimit:10;stroke-dasharray:none;stroke-opacity:1"
             id="path8992" /></g><g
           id="g8994"
           transform="translate(191.7539,111.2705)"><path
             d="M 0,0 H 7.249"
             style="fill:none;stroke:#000000;stroke-width:15;stroke-linecap:round;stroke-linejoin:round;stroke-miterlimit:10;stroke-dasharray:none;stroke-opacity:1"
             id="path8996" /></g><g
           id="g8998"
           transform="translate(210.9229,85.1758)"><path
             d="M 0,0 H 7.248"
             style="fill:none;stroke:#000000;stroke-width:15;stroke-linecap:round;stroke-linejoin:round;stroke-miterlimit:10;stroke-dasharray:none;stroke-opacity:1"
             id="path9000" /></g><g
           id="g9002"
           transform="translate(288.9482,143.9473)"><path
             d="M 0,0 H 7.249"
             style="fill:none;stroke:#000000;stroke-width:15;stroke-linecap:round;stroke-linejoin:round;stroke-miterlimit:10;stroke-dasharray:none;stroke-opacity:1"
             id="path9004" /></g></g></g></g></svg>
