<svg id="filled_outline" height="512" viewBox="0 0 512 512" width="512" xmlns="http://www.w3.org/2000/svg" data-name="filled outline"><path d="m24 312v64h24v24h24v24h24v24h24v24h24v16h48z" fill="#eda600"/><path d="m336 336-144 152-168-176 144-144z" fill="#f6bb00"/><path d="m336 336-16 64-112-24 48-120z" fill="#e5e7e9"/><path d="m256 256-120 40-32-112 64-16z" fill="#e5e7e9"/><path d="m336 336 152-152-168-160-64 64v24h-24l-64 56z" fill="#b1712c"/><path d="m24 384h16v16a7.99977 7.99977 0 0 0 8 8h16v16a7.99977 7.99977 0 0 0 8 8h16v16a7.99977 7.99977 0 0 0 8 8h16v16a7.99977 7.99977 0 0 0 8 8h16v8a7.99977 7.99977 0 0 0 8 8h48.01514a8.0017 8.0017 0 0 0 5.79248-2.498l87.80975-92.68823 32.70636 7.00855a7.99133 7.99133 0 0 0 9.4375-5.88184l15.46271-61.85083 150.4328-150.43286a7.99915 7.99915 0 0 0 -.13965-11.44971l-168-160a8.0008 8.0008 0 0 0 -11.17383.13623l-64 64a7.99877 7.99877 0 0 0 -2.34326 5.65669v16h-16a7.99842 7.99842 0 0 0 -5.26807 1.97949l-62.54593 54.72766-62.12647 15.53162a8.00031 8.00031 0 0 0 -5.75195 9.959l9.37359 32.80762-87.33791 87.33787a7.97241 7.97241 0 0 0 -2.33948 5.65674h-.00378v64a7.99977 7.99977 0 0 0 8 8zm120 80h-16v-16a7.99977 7.99977 0 0 0 -8-8h-16v-16a7.99977 7.99977 0 0 0 -8-8h-16v-16a7.99977 7.99977 0 0 0 -8-8h-16v-16a7.99977 7.99977 0 0 0 -8-8h-16v-36.033l141.3042 148.033h-21.3042v-8a7.99977 7.99977 0 0 0 -8-8zm170.11426-73.44287-95.16406-20.39213 39.9718-99.92957 68.2182 68.21814zm-30.80078-198.55713h25.373l-52.68648 52.68652-12.68652-12.68652zm52.68652 132.68652-12.68652-12.68652 40-40h25.37286zm59.31348-84.68652 48.00052-48h25.372l-60.68616 60.6864zm48-64-29.65674-29.65674-11.31348 11.31348 26.34326 26.34326-44.68652 44.68652-44.68652-44.68652 66.87146-66.87146 61.81482 58.87146zm-54.627 80h-25.373l-29.65674-29.65674-11.31348 11.31348 26.34326 26.34326-36.68652 36.68652-44.68652-44.68652 60.68652-60.68652zm-76.68648-212.68652v25.373l-29.65674 29.65678 11.31348 11.31348 26.34326-26.34326 26.34326 26.34326 11.31348-11.31348-29.65674-29.65674v-26.02l66.59552 63.42456-66.59552 66.59544-64-64v-17.37252zm-76.99414 76.68652h17.68066l56 56h-25.373l-29.65674-29.65674-11.31348 11.31348 26.34322 26.34326-36.68652 36.68652-52.29675-52.29675zm-69.4596 56.85974 75.64417 75.64417-99.79343 33.26464-27.43261-96.01367zm-54.83685 59.74426 17.59821 61.59375a7.99966 7.99966 0 0 0 10.22217 5.39161l103.63621-34.54536-41.59373 103.98481a7.99988 7.99988 0 0 0 5.75146 10.79346l60.973 13.06567-75.31873 79.50317-156.79441-164.26123z"/></svg>