<?xml version="1.0" encoding="UTF-8"?>
<svg xmlns="http://www.w3.org/2000/svg" xmlns:xlink="http://www.w3.org/1999/xlink" version="1.1" id="Capa_1" x="0px" y="0px" viewBox="0 0 511.997 511.997" style="enable-background:new 0 0 511.997 511.997;" xml:space="preserve" width="512" height="512">
<g>
	<path style="fill:#ED74B7;" d="M269.439,403.053l12.003-28.827c3.384-8.127-0.418-17.462-8.517-20.913l-70.828-30.178&#10;&#9;&#9;l-15.499,23.058l36.951,58.493L269.439,403.053z"/>
	<path style="fill:none;stroke:#000000;stroke-width:15;stroke-linecap:round;stroke-linejoin:round;stroke-miterlimit:10;" d="&#10;&#9;&#9;M238.364,338.582l34.563,14.728c8.099,3.452,11.9,12.79,8.514,20.911l-4.313,10.37"/>
	<path style="fill:#EAF6FF;" d="M328.719,478.585l-10.968,15.364c-8.079,11.318-23.804,13.943-35.121,5.863l-136.257-97.271&#10;&#9;&#9;l40.226-56.349l38.54,27.513c9.401,6.711,21.101,9.369,32.478,7.379h0c12.139-2.123,24.288,3.695,30.243,14.484l15.926,28.853&#10;&#9;&#9;c3.256,5.898,7.792,10.991,13.275,14.906l5.795,4.137C334.173,451.543,336.798,467.267,328.719,478.585z"/>
	<path style="fill:#D8ECFE;" d="M303.784,424.417c3.259,5.901,7.787,10.994,13.273,14.906l5.797,4.135&#10;&#9;&#9;c11.321,8.084,13.948,23.806,5.864,35.127l-10.972,15.366c-3.311,4.632-7.898,7.809-12.946,9.383l2.086-2.917&#10;&#9;&#9;c8.084-11.32,5.456-27.043-5.864-35.127l-5.798-4.135c-5.478-3.92-10.014-9.004-13.273-14.906l-15.923-28.854&#10;&#9;&#9;c-1.329-2.413-2.977-4.58-4.862-6.466c-6.532-6.532-15.96-9.665-25.373-8.017c-11.387,1.99-23.086-0.668-32.484-7.379&#10;&#9;&#9;l-34.399-24.556l17.69-24.786l38.542,27.511c9.398,6.711,21.097,9.368,32.477,7.386c9.42-1.655,18.855,1.485,25.388,8.017&#10;&#9;&#9;c1.886,1.886,3.526,4.046,4.855,6.458L303.784,424.417z"/>
	
		<line style="fill:none;stroke:#000000;stroke-width:15;stroke-linecap:round;stroke-linejoin:round;stroke-miterlimit:10;" x1="236.199" y1="466.67" x2="161.339" y2="413.23"/>
	<path style="fill:none;stroke:#000000;stroke-width:15;stroke-linecap:round;stroke-linejoin:round;stroke-miterlimit:10;" d="&#10;&#9;&#9;M212.359,364.59l12.78,9.12c9.4,6.7,21.1,9.36,32.48,7.38c9.42-1.66,18.84,1.48,25.37,8.01c1.89,1.89,3.53,4.05,4.87,6.47&#10;&#9;&#9;l15.93,28.85c3.25,5.9,7.78,10.99,13.27,14.9l5.8,4.14c11.32,8.08,13.94,23.81,5.86,35.12l-10.97,15.37&#10;&#9;&#9;c-8.08,11.31-23.8,13.94-35.12,5.86l-18.02-12.86"/>
	<path style="fill:#EAF6FF;" d="M411.175,133.323l-18.747,32.794l-58.176-25.89l-25.89-58.176l32.794-18.747&#10;&#9;&#9;c6.791-3.882,15.339-2.738,20.87,2.793l46.356,46.356C413.913,117.983,415.057,126.532,411.175,133.323z"/>
	<path style="fill:#D8ECFE;" d="M377.986,82.05l30.406,30.406c5.53,5.53,6.673,14.082,2.784,20.867l-18.736,32.796l-58.184-25.892&#10;&#9;&#9;l-9.353-21.037l37.131,16.524l18.744-32.789C384.659,96.132,383.516,87.58,377.986,82.05z"/>
	<path style="fill:none;stroke:#000000;stroke-width:15;stroke-linecap:round;stroke-linejoin:round;stroke-miterlimit:10;" d="&#10;&#9;&#9;M411.175,133.323l-18.747,32.794L308.362,82.05l32.794-18.747c6.791-3.882,15.339-2.738,20.87,2.793l46.356,46.356&#10;&#9;&#9;C413.913,117.983,415.057,126.532,411.175,133.323z"/>
	<path style="fill:#EAF6FF;" d="M199.239,342.892l-75.978,75.978c-14.124,14.124-37.023,14.124-51.147,0l-16.506-16.506&#10;&#9;&#9;c-14.124-14.124-14.124-37.023,0-51.147l75.978-75.978L199.239,342.892z"/>
	<path style="fill:#D8ECFE;" d="M178.586,322.241l20.652,20.652l-75.977,75.977c-14.119,14.119-37.027,14.119-51.146,0&#10;&#9;&#9;l-16.509-16.509c-0.698-0.698-1.359-1.418-1.989-2.153c14.208,12.1,35.572,11.432,48.994-1.99L178.586,322.241z"/>
	<path style="fill:none;stroke:#000000;stroke-width:15;stroke-linecap:round;stroke-linejoin:round;stroke-miterlimit:10;" d="&#10;&#9;&#9;M124.788,417.342l-1.529,1.529c-14.119,14.119-37.02,14.126-51.146,0L55.61,402.37c-14.126-14.126-14.119-37.027,0-51.146&#10;&#9;&#9;l1.529-1.529"/>
	<path style="fill:#EAF6FF;" d="M250.751,326.196c73.004-51.396,147.766-65.603,178.686-58.5l-86.643-118.929L206.782,45.042&#10;&#9;&#9;c7.103,30.92-7.103,105.682-58.5,178.686l35.905,66.564L250.751,326.196z"/>
	<path style="fill:#D8ECFE;" d="M358.849,197.121l37.719,12.141l32.861,58.439c-30.918-7.104-105.678,7.097-178.678,58.495&#10;&#9;&#9;l-66.572-35.899l34.088,3.415C284.423,235.469,339.986,202.072,358.849,197.121z"/>
	<path style="fill:#01D0FB;" d="M250.751,326.196l-79.387,79.387c-18.296,18.296-47.961,18.296-66.257,0l-36.211-36.211&#10;&#9;&#9;c-18.296-18.297-18.296-47.961,0-66.257l79.387-79.387L250.751,326.196z"/>
	<path style="fill:#01C0FA;" d="M218.267,293.712l32.484,32.484l-79.384,79.384c-18.298,18.298-47.962,18.298-66.26,0&#10;&#9;&#9;l-32.484-32.484c18.298,18.298,47.962,18.298,66.26,0L218.267,293.712z"/>
	<path style="fill:none;stroke:#000000;stroke-width:15;stroke-linecap:round;stroke-linejoin:round;stroke-miterlimit:10;" d="&#10;&#9;&#9;M81.269,290.74l67.01-67.01l102.47,102.47l-79.38,79.38c-18.3,18.3-47.97,18.3-66.26,0l-36.21-36.21&#10;&#9;&#9;c-14.01-14-17.29-34.67-9.86-51.8"/>
	<path style="fill:none;stroke:#000000;stroke-width:15;stroke-linecap:round;stroke-linejoin:round;stroke-miterlimit:10;" d="&#10;&#9;&#9;M206.782,45.042c7.103,30.92-7.103,105.682-58.5,178.686"/>
	<path style="fill:none;stroke:#000000;stroke-width:15;stroke-linecap:round;stroke-linejoin:round;stroke-miterlimit:10;" d="&#10;&#9;&#9;M250.751,326.196c73.004-51.396,147.766-65.603,178.686-58.5"/>
	<path style="fill:#01D0FB;" d="M460.292,266.266L460.292,266.266c-8.916,8.916-23.37,8.916-32.286,0L208.213,46.473&#10;&#9;&#9;c-8.916-8.916-8.916-23.37,0-32.286l0,0c8.916-8.916,23.37-8.916,32.286,0L460.292,233.98&#10;&#9;&#9;C469.208,242.896,469.208,257.35,460.292,266.266z"/>
	<path style="fill:#01C0FA;" d="M382.4,156.082l77.9,77.9c8.915,8.915,8.908,23.368-0.007,32.284&#10;&#9;&#9;c-8.915,8.915-23.368,8.923-32.284,0.007l-77.9-77.9c8.915,8.915,23.368,8.908,32.284-0.007&#10;&#9;&#9;C391.308,179.451,391.315,164.998,382.4,156.082z"/>
	<path style="fill:none;stroke:#000000;stroke-width:15;stroke-linecap:round;stroke-linejoin:round;stroke-miterlimit:10;" d="&#10;&#9;&#9;M282.309,56l177.98,177.98c8.92,8.92,8.92,23.37,0,32.29c-8.91,8.91-23.37,8.91-32.28,0l-219.8-219.8&#10;&#9;&#9;c-8.91-8.91-8.91-23.37,0-32.28c4.46-4.46,10.3-6.69,16.15-6.69c5.84,0,11.68,2.23,16.14,6.69l17.21,17.21"/>
</g>















</svg>
