<svg id="Capa_1" enable-background="new 0 0 512 512" height="512" viewBox="0 0 512 512" width="512" xmlns="http://www.w3.org/2000/svg"><g><g><path d="m292.177 7.5h-183.52c-10.216 0-18.499 8.282-18.499 18.499v15.348l2.878 3.081h210.645l6.994-3.081v-15.348c0-10.217-8.282-18.499-18.498-18.499z" fill="#ffd500"/><path d="m132.087 25.999c0-10.217 8.282-18.499 18.499-18.499h-41.929c-10.216 0-18.499 8.282-18.499 18.499v15.348l2.878 3.081h41.929l-2.878-3.081z" fill="#fbc700"/><path d="m304.014 454.848h-206.333l-7.522 5.58v25.573c0 10.217 8.282 18.499 18.499 18.499h183.52c10.216 0 18.499-8.282 18.499-18.499v-25.573z" fill="#dbedff"/><path d="m132.087 486.001v-25.573l7.522-5.58h-41.928l-7.522 5.58v25.573c0 10.217 8.282 18.499 18.499 18.499h41.929c-10.217 0-18.5-8.282-18.5-18.499z" fill="#b5dcff"/><path d="m90.159 173.418 6.522 6.839h210.333l3.661-6.838v-44.072l-4.327-7.252h-204.667l-11.522 7.252v44.072z" fill="#dbedff"/><path d="m132.087 129.347 11.523-7.252h-41.929l-11.522 7.252v44.071l6.522 6.839h41.929l-6.523-6.839z" fill="#b5dcff"/><path d="m312.417 41.347h-187l-8.532 5.081v75.583l8.401 7.336h187.132c6.6 0 12-5.4 12-12v-64c-.001-6.6-5.401-12-12.001-12z" fill="#ffe559"/><path d="m118.346 117.347v-64c0-6.6 5.4-12 12-12h-41.929c-6.6 0-12 5.4-12 12v64c0 6.6 5.4 12 12 12h41.929c-6.6 0-12-5.4-12-12z" fill="#ffd500"/><path d="m90.159 173.418h220.517v287.01h-220.517z" fill="#ff636e"/><path d="m90.159 173.418h41.929v287.01h-41.929z" fill="#ff4654"/><path d="m214.197 207.521c-49.783 11.512-86.895 56.12-86.895 109.402s37.112 97.89 86.895 109.402c54.39-6.782 96.478-53.176 96.478-109.402s-42.088-102.62-96.478-109.402z" fill="#ffe02f"/><path d="m128.98 316.924c0-54.271 39.211-99.383 90.848-108.554-6.301-1.119-12.788-1.704-19.411-1.704-60.894 0-110.258 49.364-110.258 110.258s49.365 110.258 110.258 110.258c6.623 0 13.109-.585 19.411-1.704-51.637-9.172-90.848-54.283-90.848-108.554z" fill="#ffd500"/><path d="m245.071 300.174h-23.559c-2.4 0-4.346-1.946-4.346-4.346v-23.559c0-2.4-1.946-4.346-4.346-4.346h-24.809c-2.4 0-4.346 1.946-4.346 4.346v23.559c0 2.4-1.946 4.346-4.346 4.346h-23.559c-2.4 0-4.346 1.946-4.346 4.346v24.809c0 2.4 1.946 4.346 4.346 4.346h23.559c2.4 0 4.346 1.946 4.346 4.346v23.559c0 2.4 1.946 4.346 4.346 4.346h24.809c2.4 0 4.346-1.946 4.346-4.346v-23.559c0-2.4 1.946-4.346 4.346-4.346h23.559c2.4 0 4.346-1.946 4.346-4.346v-24.809c0-2.401-1.946-4.346-4.346-4.346z" fill="#dbedff"/><g fill="#b5dcff"><path d="m202.917 295.828v-23.559c0-2.4 1.946-4.346 4.346-4.346h-19.25c-2.4 0-4.346 1.946-4.346 4.346v23.559c0 2.4-1.946 4.346-4.346 4.346h19.25c2.4 0 4.346-1.946 4.346-4.346z"/><path d="m202.917 361.578v-23.559c0-2.4-1.946-4.346-4.346-4.346h-19.25c2.4 0 4.346 1.946 4.346 4.346v23.559c0 2.4 1.946 4.346 4.346 4.346h19.25c-2.4 0-4.346-1.946-4.346-4.346z"/><path d="m170.667 329.328v-24.809c0-2.4 1.946-4.346 4.346-4.346h-19.25c-2.4 0-4.346 1.946-4.346 4.346v24.809c0 2.4 1.946 4.346 4.346 4.346h19.25c-2.4 0-4.346-1.946-4.346-4.346z"/></g><g><path d="m360.397 203.49v4.92l57.984 57.135 4.302.231c17.2-17.2 17.2-45.086 0-62.286s-45.086-17.2-62.286 0z" fill="#ffe559"/><path d="m405.942 193.005c-15.429-5.325-33.228-1.833-45.546 10.485v4.92l16.932 16.684c3.317-15.011 14.287-27.139 28.614-32.089z" fill="#ffd500"/><path d="m360.397 203.49c-17.2 17.2-17.2 45.086 0 62.286s45.086 17.2 62.286 0z" fill="#ff636e"/><path d="m376.281 234.633c0-4.611.712-9.055 2.026-13.233l-17.911-17.911c-17.2 17.2-17.2 45.086 0 62.286 12.318 12.318 30.116 15.811 45.546 10.485-17.259-5.961-29.661-22.341-29.661-41.627z" fill="#ff4654"/></g><g><path d="m360.397 291.576v4.92l57.984 57.135 4.302.231c17.2-17.2 17.2-45.086 0-62.286s-45.086-17.2-62.286 0z" fill="#ffe559"/><path d="m405.942 281.091c-15.429-5.325-33.228-1.833-45.546 10.485v4.92l16.932 16.684c3.317-15.011 14.287-27.139 28.614-32.089z" fill="#ffd500"/><path d="m360.397 291.576c-17.2 17.2-17.2 45.086 0 62.286s45.086 17.2 62.286 0z" fill="#ff636e"/><path d="m376.281 322.719c0-4.611.712-9.055 2.026-13.233l-17.911-17.911c-17.2 17.2-17.2 45.086 0 62.286 12.318 12.318 30.116 15.811 45.546 10.485-17.259-5.961-29.661-22.34-29.661-41.627z" fill="#ff4654"/></g><g><path d="m360.397 379.662v4.92l57.984 57.135 4.302.231c17.2-17.2 17.2-45.086 0-62.286s-45.086-17.2-62.286 0z" fill="#ffe559"/><path d="m405.942 369.177c-15.429-5.325-33.228-1.833-45.546 10.485v4.92l16.932 16.684c3.317-15.011 14.287-27.139 28.614-32.089z" fill="#ffd500"/><path d="m360.397 379.662c-17.2 17.2-17.2 45.086 0 62.286s45.086 17.2 62.286 0z" fill="#ff636e"/><path d="m376.281 410.805c0-4.611.712-9.055 2.026-13.233l-17.911-17.911c-17.2 17.2-17.2 45.086 0 62.286 12.318 12.318 30.116 15.811 45.546 10.485-17.259-5.961-29.661-22.34-29.661-41.627z" fill="#ff4654"/></g></g><g><path d="m210.618 71.514v27.667c0 4.142 3.357 7.5 7.5 7.5s7.5-3.358 7.5-7.5v-27.667c0-4.142-3.357-7.5-7.5-7.5s-7.5 3.358-7.5 7.5z"/><path d="m175.19 71.514v27.667c0 4.142 3.357 7.5 7.5 7.5s7.5-3.358 7.5-7.5v-27.667c0-4.142-3.357-7.5-7.5-7.5s-7.5 3.358-7.5 7.5z"/><path d="m281.476 71.514v27.667c0 4.142 3.357 7.5 7.5 7.5s7.5-3.358 7.5-7.5v-27.667c0-4.142-3.357-7.5-7.5-7.5s-7.5 3.358-7.5 7.5z"/><path d="m104.333 71.514v27.667c0 4.142 3.357 7.5 7.5 7.5s7.5-3.358 7.5-7.5v-27.667c0-4.142-3.357-7.5-7.5-7.5s-7.5 3.358-7.5 7.5z"/><path d="m139.761 71.514v27.667c0 4.142 3.357 7.5 7.5 7.5s7.5-3.358 7.5-7.5v-27.667c0-4.142-3.357-7.5-7.5-7.5s-7.5 3.358-7.5 7.5z"/><path d="m246.047 71.514v27.667c0 4.142 3.357 7.5 7.5 7.5s7.5-3.358 7.5-7.5v-27.667c0-4.142-3.357-7.5-7.5-7.5s-7.5 3.358-7.5 7.5z"/><path d="m155.75 341.174h20.404v20.404c0 6.532 5.314 11.846 11.846 11.846h24.809c6.531 0 11.846-5.314 11.846-11.846v-20.404h20.404c6.531 0 11.846-5.314 11.846-11.846v-24.808c0-6.532-5.314-11.846-11.846-11.846h-20.404v-20.404c0-6.532-5.314-11.846-11.846-11.846h-24.809c-6.531 0-11.846 5.314-11.846 11.846v20.404h-20.404c-6.531 0-11.846 5.314-11.846 11.846v24.809c0 6.531 5.315 11.845 11.846 11.845zm3.154-33.5h20.404c6.531 0 11.846-5.314 11.846-11.846v-20.404h18.5v20.404c0 6.532 5.314 11.846 11.846 11.846h20.404v18.5h-20.404c-6.531 0-11.846 5.314-11.846 11.846v20.404h-18.5v-20.404c0-6.532-5.314-11.846-11.846-11.846h-20.404z"/><path d="m391.526 183.09c-28.488 0-51.543 23.053-51.543 51.543 0 18.463 9.672 34.833 24.746 44.043-14.667 8.961-24.746 25.151-24.746 44.043 0 18.714 9.932 34.993 24.746 44.043-14.933 9.123-24.746 25.414-24.746 44.043 0 28.488 23.053 51.543 51.543 51.543 13.768 0 26.712-5.361 36.447-15.097 23.525-23.526 18.911-63.042-9.649-80.489 32.803-20.04 33.066-67.886 0-88.086 3.465-2.117 6.706-4.653 9.649-7.597 32.367-32.367 9.324-87.989-36.447-87.989zm30.595 71.53-50.584-50.584c5.891-3.866 12.78-5.946 19.99-5.946 28.985 0 46.427 32.305 30.594 56.53zm-30.595 104.642c-9.761 0-18.938-3.801-25.839-10.703-7.073-7.074-10.704-16.342-10.704-25.84v-.001c0-6.858 1.918-13.844 5.947-19.989l50.587 50.587c-5.975 3.921-12.919 5.946-19.991 5.946zm-36.543 51.544c0-6.966 1.972-13.938 5.947-19.99l50.587 50.587c-5.951 3.899-12.89 5.946-19.991 5.946-20.193 0-36.543-16.343-36.543-36.543zm67.138 19.987-50.584-50.584c5.891-3.866 12.78-5.946 19.99-5.946 29.029 0 46.396 32.352 30.594 56.53zm-.001-88.087-50.584-50.584c5.891-3.866 12.78-5.946 19.99-5.946 28.986 0 46.429 32.304 30.594 56.53zm-67.137-108.073c0-6.827 1.917-13.854 5.947-19.99l50.587 50.587c-24.387 15.978-56.534-1.743-56.534-30.597z"/><path d="m324.404 71.681c4.143 0 7.5-3.358 7.5-7.5v-10.834c0-8.749-5.792-16.169-13.742-18.631v-8.717c0-14.336-11.663-25.999-25.998-25.999h-183.52c-14.335 0-25.998 11.663-25.998 25.999v8.718c-7.95 2.462-13.741 9.882-13.741 18.63v64c0 8.748 5.792 16.168 13.741 18.63v350.024c0 14.335 11.663 25.999 25.999 25.999h183.52c14.335 0 25.998-11.663 25.998-25.999 0-9.458 0-340.646 0-350.024 7.95-2.462 13.742-9.882 13.742-18.631v-18.165c0-4.142-3.357-7.5-7.5-7.5s-7.5 3.358-7.5 7.5v18.167c0 2.439-2.061 4.5-4.5 4.5-.937 0-221.916 0-224 0-2.439 0-4.5-2.061-4.5-4.5v-64c0-2.439 2.061-4.5 4.5-4.5h224c2.439 0 4.5 2.061 4.5 4.5v10.833c-.001 4.142 3.357 7.5 7.499 7.5zm-32.24 425.319h-183.52c-6.064 0-10.999-4.934-10.999-10.999v-18.073h205.517v18.073c0 6.065-4.933 10.999-10.998 10.999zm10.998-44.071h-205.516v-78.551c20.182 35.953 58.677 60.305 102.759 60.305 44.081 0 82.576-24.352 102.758-60.305v78.551zm-205.516-136.005c0-56.661 46.098-102.758 102.759-102.758s102.758 46.097 102.758 102.758-46.097 102.758-102.758 102.758-102.759-46.097-102.759-102.758zm205.516-180.077v29.071h-85.258c-4.143 0-7.5 3.358-7.5 7.5s3.357 7.5 7.5 7.5h85.258v78.552c-20.182-35.953-58.677-60.305-102.758-60.305-44.082 0-82.577 24.352-102.759 60.305v-78.552h85.259c4.143 0 7.5-3.358 7.5-7.5s-3.357-7.5-7.5-7.5h-85.258v-29.071zm-205.516-103v-7.848c0-6.065 4.935-10.999 10.999-10.999h183.52c6.064 0 10.998 4.934 10.998 10.999v7.848z"/></g></g></svg>