<svg id="filled_outline" height="512" viewBox="0 0 512 512" width="512" xmlns="http://www.w3.org/2000/svg" data-name="filled outline"><path d="m256 224 128-152-48-48h-160l-48 48z" fill="#7dafff"/><path d="m320 72-64 152-64-152z" fill="#548aff"/><path d="m320 72 16-48 48 48z" fill="#4976f2"/><path d="m192 72 64-48 64 48z" fill="#a6cfff"/><path d="m384 72h-64l-64 152z" fill="#4367e0"/><path d="m192 72-16-48-48 48z" fill="#a6cfff"/><path d="m80 200h352v288h-352z" fill="#ffc431"/><path d="m80 200h96v288h-96z" fill="#ffb401"/><path d="m80 496h352a7.99977 7.99977 0 0 0 8-8v-288a7.99977 7.99977 0 0 0 -8-8h-98.594l29.34448-34.84668-12.23828-10.30664-38.02367 45.15332h-19.08246l96.71307-114.84668a7.99965 7.99965 0 0 0 -.4624-10.81006l-48-48a7.99877 7.99877 0 0 0 -5.65674-2.34326h-160a7.99877 7.99877 0 0 0 -5.65674 2.34326l-48 48 .01361.01361a7.93132 7.93132 0 0 0 -.476 10.79645l96.71306 114.84668h-19.08246l-38.02368-45.15332-12.23828 10.30664 29.34449 34.84668h-98.594a7.99977 7.99977 0 0 0 -8 8v288a7.99977 7.99977 0 0 0 8 8zm48-44.68652 28.68652 28.68652h-57.373zm296 28.68652h-240v-272h240zm-98.68823-400h41.4928l-82.985 98.54443zm5.78753-16 8.39679-25.19037 25.19007 25.19037zm-15.17889-5.05957-35.92065-26.94043h44.90094zm-19.92017 5.05957h-80.00048l40.00024-30zm-99.92065-5.05957-8.98029-26.94043h44.90094zm-15.17889 5.05957h-33.58722l25.19043-25.19043zm127.05072 16-47.15772 112h-9.58716l-47.15789-112zm-121.26319 0 41.4925 98.54468-82.98493-98.54468zm-66.68823 128v88h16v-88h32v260.68652l-32-32v-92.68652h-16v92.68652l-32 32v-260.68652z"/><path d="m120 312h16v16h-16z"/><path d="m259.05591 248 35.90014 71.80078a43.77693 43.77693 0 1 0 78.31055-39.15527l-16.3226-32.64551h11.056v-16h-40v16h11.05591l19.90014 39.80078a27.77725 27.77725 0 0 1 -49.68945 24.84473l-32.3226-64.64551h11.056v-16h-40v16z"/><path d="m366.267 119.75h21.571v15.999h-21.571z" transform="matrix(.644 -.765 .765 .644 36.464 333.876)"/><path d="m126.948 116.965h15.999v21.571h-15.999z" transform="matrix(.765 -.644 .644 .765 -50.564 116.955)"/></svg>